# xmcd CD database file
#
# Track frame offsets:
#	150
#	32399
#	58874
#	85273
#	111597
#	141764
#	159098
#	184518
#	201674
#	219972
#	240885
#	266610
#	288662
#	305530
#
# Disc length: 4359 seconds
#
# Revision: 0
# Processed by: cddbd v1.5PL3 Copyright (c) Steve Scherf et al.
# Submitted via: CDex 1.51
#
DISCID=c511050e
DTITLE=Yanni - Compilation
DYEAR=1900
DGENRE=New Age
TTITLE0=On Sacred Ground
TTITLE1=The Flame Within
TTITLE2=Midnight Hymn
TTITLE3=If I Could Tell You
TTITLE4=Looking Glass
TTITLE5=In The Morning Light
TTITLE6=Marching Season
TTITLE7=The Mermaid
TTITLE8=In The Mirror
TTITLE9=Someday
TTITLE10=Flight Of Fantasy
TTITLE11=The End Of August
TTITLE12=Face In The Photograph
TTITLE13=November Sky
EXTD=
EXTT0=
EXTT1=
EXTT2=
EXTT3=
EXTT4=
EXTT5=
EXTT6=
EXTT7=
EXTT8=
EXTT9=
EXTT10=
EXTT11=
EXTT12=
EXTT13=
PLAYORDER=
